<svg version="1.1" viewBox="0.0 0.0 577.0157480314961 100.0" fill="none" stroke="none" stroke-linecap="square" stroke-miterlimit="10" xmlns:xlink="http://www.w3.org/1999/xlink" xmlns="http://www.w3.org/2000/svg"><clipPath id="p.0"><path d="m0 0l577.01575 0l0 100.0l-577.01575 0l0 -100.0z" clip-rule="nonzero"/></clipPath><g clip-path="url(#p.0)"><path fill="#000000" fill-opacity="0.0" d="m0 0l577.01575 0l0 100.0l-577.01575 0z" fill-rule="evenodd"/><path fill="#000000" fill-opacity="0.0" d="m3.0 -6.0l624.0 0l0 42.992126l-624.0 0z" fill-rule="evenodd"/><path fill="#000000" d="m43.390625 31.869995q-0.796875 -1.359375 -5.90625 -1.359375q-6.6875 0 -10.15625 4.53125q-3.453125 4.53125 -3.453125 13.109375q0 17.78125 13.328125 17.78125q0.21875 0 1.90625 0q1.6875 0 3.203125 -0.46875q1.515625 -0.46875 1.796875 -0.96875q0.296875 -0.515625 0.296875 -1.59375l0 -5.75l7.34375 0.5l0 12.453125q-5.625 2.953125 -14.265625 2.953125q-11.015625 0 -16.8125 -6.1875q-5.796875 -6.203125 -5.796875 -18.4375q0 -6.765625 1.9375 -11.796875q1.953125 -5.046875 5.265625 -7.859375q6.484375 -5.40625 15.40625 -5.40625q7.203125 0 13.546875 2.953125l0 12.25l-7.34375 0.5l0 -5.609375q0 -1.09375 -0.296875 -1.59375zm46.65651 5.46875l0 26.796875q0 1.140625 0.390625 1.578125q0.40625 0.4375 1.40625 0.5l2.3125 0.140625l0 5.765625l-11.453125 0l0 -4.171875l-0.21875 -0.078125q-3.59375 5.1875 -9.859375 5.1875q-7.34375 0 -10.875 -4.671875q-3.53125 -4.6875 -3.53125 -12.828125q0 -9.796875 4.75 -15.265625q4.765625 -5.46875 14.265625 -5.46875q6.125 0 12.8125 2.515625zm-8.34375 23.328125l0 -18.640625q-2.015625 -0.9375 -5.546875 -0.9375q-4.828125 0 -7.0 3.890625q-2.15625 3.890625 -2.15625 10.296875q0 11.65625 7.5 11.65625q3.15625 0 5.171875 -1.90625q2.03125 -1.90625 2.03125 -4.359375zm21.308395 3.390625l0 -19.953125q0 -1.140625 -0.40625 -1.609375q-0.390625 -0.46875 -1.390625 -0.546875l-3.03125 -0.21875l0 -5.828125l12.171875 0l0 5.40625q1.296875 -2.8125 4.03125 -4.640625q2.734375 -1.84375 6.296875 -1.84375q3.5625 0 6.796875 1.578125l0 10.734375l-6.6875 0.5l0 -3.3125q0 -1.4375 -0.71875 -1.796875q-0.796875 -0.359375 -1.953125 -0.359375q-2.875 0 -4.71875 2.0625q-1.828125 2.046875 -1.828125 5.203125l0 16.71875l6.265625 0.28125l0 5.6875l-19.296875 0l0 -5.46875l2.375 -0.21875q1.078125 -0.140625 1.578125 -0.609375q0.515625 -0.46875 0.515625 -1.765625zm31.967133 5.90625l0 -41.328125q0 -1.65625 -1.796875 -1.734375l-2.53125 -0.140625l0 -5.984375l12.671875 0l0 17.078125q3.25 -3.03125 8.71875 -3.03125q6.765625 0 10.71875 4.578125q3.96875 4.5625 3.96875 12.84375q0 20.8125 -17.421875 20.8125q-3.75 0 -7.890625 -0.90625q-4.140625 -0.890625 -6.4375 -2.1875zm8.34375 -23.328125l0 18.640625q2.734375 1.4375 6.34375 1.4375q8.203125 0 8.203125 -13.3125q0 -12.171875 -8.0625 -12.171875q-2.59375 0 -4.546875 1.515625q-1.9375 1.515625 -1.9375 3.890625zm45.078888 20.234375q7.84375 0 7.84375 -12.671875q0 -6.421875 -1.765625 -9.71875q-1.765625 -3.3125 -5.90625 -3.3125q-4.140625 0 -6.078125 3.171875q-1.9375 3.15625 -1.9375 8.625q0 10.15625 3.734375 12.75q1.65625 1.15625 4.109375 1.15625zm-16.5625 -12.890625q0 -5.328125 1.578125 -9.25q1.59375 -3.921875 4.25 -6.015625q5.109375 -3.890625 11.3125 -3.890625q4.3125 0 7.296875 1.40625q3.0 1.40625 4.6875 3.25q1.6875 1.828125 2.875 5.328125q1.1875 3.484375 1.1875 8.234375q0 9.9375 -4.828125 15.046875q-4.8125 5.109375 -12.34375 5.109375q-7.515625 0 -11.765625 -4.859375q-4.25 -4.859375 -4.25 -14.359375zm37.57852 -12.3125l0 -5.765625l12.171875 0l0 4.6875q1.875 -2.671875 4.96875 -4.21875q3.09375 -1.546875 6.703125 -1.546875q5.46875 0 8.453125 3.140625q2.984375 3.125 2.984375 9.390625l0 18.796875l4.109375 0.203125l0 5.765625l-17.140625 0l0 -5.46875l2.375 -0.21875q1.078125 -0.140625 1.578125 -0.609375q0.515625 -0.46875 0.515625 -1.765625l0 -14.828125q0 -3.96875 -1.234375 -5.875q-1.21875 -1.90625 -4.640625 -1.90625q-3.40625 0 -5.421875 2.15625q-2.015625 2.15625 -2.015625 5.109375l0 17.4375l4.09375 0.203125l0 5.765625l-17.140625 0l0 -5.46875l2.390625 -0.21875q1.078125 -0.140625 1.578125 -0.609375q0.5 -0.46875 0.5 -1.765625l0 -19.953125q0 -2.15625 -1.796875 -2.21875l-3.03125 -0.21875zm58.11563 30.453125l0 -5.828125l2.375 -0.21875q2.078125 -0.21875 2.078125 -2.015625l0 -33.484375l-4.09375 -0.21875l0 -6.109375l34.765625 0l0 11.953125l-7.34375 0.5l0 -2.875q0 -1.234375 -0.359375 -1.734375q-0.359375 -0.5 -1.71875 -0.5l-12.453125 0l0 12.734375l17.703125 0l0 7.34375l-17.703125 0l0 14.109375l6.40625 0.21875l0 6.125l-19.65625 0zm52.70038 -5.25q7.84375 0 7.84375 -12.671875q0 -6.421875 -1.765625 -9.71875q-1.765625 -3.3125 -5.90625 -3.3125q-4.140625 0 -6.078125 3.171875q-1.9375 3.15625 -1.9375 8.625q0 10.15625 3.734375 12.75q1.65625 1.15625 4.109375 1.15625zm-16.5625 -12.890625q0 -5.328125 1.578125 -9.25q1.59375 -3.921875 4.25 -6.015625q5.109375 -3.890625 11.3125 -3.890625q4.3125 0 7.296875 1.40625q3.0 1.40625 4.6875 3.25q1.6875 1.828125 2.875 5.328125q1.1875 3.484375 1.1875 8.234375q0 9.9375 -4.828125 15.046875q-4.8125 5.109375 -12.34375 5.109375q-7.515625 0 -11.765625 -4.859375q-4.25 -4.859375 -4.25 -14.359375zm54.57852 12.890625q7.84375 0 7.84375 -12.671875q0 -6.421875 -1.765625 -9.71875q-1.765625 -3.3125 -5.90625 -3.3125q-4.140625 0 -6.078125 3.171875q-1.9375 3.15625 -1.9375 8.625q0 10.15625 3.734375 12.75q1.65625 1.15625 4.109375 1.15625zm-16.5625 -12.890625q0 -5.328125 1.578125 -9.25q1.59375 -3.921875 4.25 -6.015625q5.109375 -3.890625 11.3125 -3.890625q4.3125 0 7.296875 1.40625q3.0 1.40625 4.6875 3.25q1.6875 1.828125 2.875 5.328125q1.1875 3.484375 1.1875 8.234375q0 9.9375 -4.828125 15.046875q-4.8125 5.109375 -12.34375 5.109375q-7.515625 0 -11.765625 -4.859375q-4.25 -4.859375 -4.25 -14.359375zm44.936005 -25.703125l4.671875 0l0 7.625l9.578125 0l-0.71875 6.046875l-8.859375 0l0 18.9375q0 3.171875 1.15625 4.4375q1.15625 1.25 3.5625 1.25q2.40625 0 4.859375 -1.515625l2.15625 5.546875q-3.59375 2.53125 -9.140625 2.53125q-3.234375 0 -5.46875 -0.828125q-2.234375 -0.828125 -3.3125 -1.828125q-1.078125 -1.015625 -1.65625 -2.953125q-0.578125 -1.953125 -0.65625 -3.0625q-0.0625 -1.125 -0.0625 -3.28125l0 -19.234375l-5.109375 0l0.71875 -5.25q3.375 -0.296875 5.09375 -2.40625q1.734375 -2.125 3.1875 -6.015625zm19.065887 43.84375l0 -5.828125l2.390625 -0.21875q2.078125 -0.21875 2.078125 -2.015625l0 -33.484375l-4.109375 -0.21875l0 -6.109375l20.59375 0q8.0625 0 12.5625 3.78125q4.5 3.78125 4.5 11.34375q0 7.546875 -5.109375 11.765625q-5.109375 4.203125 -13.53125 4.203125l-6.125 0l0 10.4375l6.921875 0.21875l0 6.125l-20.171875 0zm13.25 -23.765625l5.1875 0q10.515625 0 10.515625 -8.5625q0 -5.1875 -2.703125 -6.875q-2.703125 -1.6875 -8.609375 -1.6875l-4.390625 0l0 17.125zm33.776886 15.703125l0 -19.953125q0 -1.140625 -0.40625 -1.609375q-0.390625 -0.46875 -1.390625 -0.546875l-3.03125 -0.21875l0 -5.828125l12.171875 0l0 5.40625q1.296875 -2.8125 4.03125 -4.640625q2.734375 -1.84375 6.296875 -1.84375q3.5625 0 6.796875 1.578125l0 10.734375l-6.6875 0.5l0 -3.3125q0 -1.4375 -0.71875 -1.796875q-0.796875 -0.359375 -1.953125 -0.359375q-2.875 0 -4.71875 2.0625q-1.828125 2.046875 -1.828125 5.203125l0 16.71875l6.265625 0.28125l0 5.6875l-19.296875 0l0 -5.46875l2.375 -0.21875q1.078125 -0.140625 1.578125 -0.609375q0.515625 -0.46875 0.515625 -1.765625zm41.826508 -28.15625l0 30.25l4.109375 0.203125l0 5.765625l-17.140625 0l0 -5.46875l2.375 -0.21875q2.09375 -0.21875 2.09375 -2.296875l0 -20.03125q0 -1.21875 -0.40625 -1.640625q-0.390625 -0.4375 -1.390625 -0.4375l-2.53125 -0.140625l0 -5.984375l12.890625 0zm-9.078125 -6.21875q-1.5 -1.484375 -1.5 -3.78125q0 -2.3125 1.5 -3.859375q1.515625 -1.546875 3.96875 -1.546875q2.453125 0 4.0 1.546875q1.546875 1.546875 1.546875 3.859375q0 2.296875 -1.546875 3.78125q-1.546875 1.46875 -4.0 1.46875q-2.453125 0 -3.96875 -1.46875zm16.921387 11.984375l0 -5.765625l12.1718445 0l0 4.6875q1.875 -2.671875 4.96875 -4.21875q3.09375 -1.546875 6.703125 -1.546875q5.46875 0 8.453125 3.140625q2.984375 3.125 2.984375 9.390625l0 18.796875l4.109375 0.203125l0 5.765625l-17.140625 0l0 -5.46875l2.375 -0.21875q1.078125 -0.140625 1.578125 -0.609375q0.515625 -0.46875 0.515625 -1.765625l0 -14.828125q0 -3.96875 -1.234375 -5.875q-1.21875 -1.90625 -4.640625 -1.90625q-3.40625 0 -5.421875 2.15625q-2.015625 2.15625 -2.015625 5.109375l0 17.4375l4.09375 0.203125l0 5.765625l-17.140594 0l0 -5.46875l2.390625 -0.21875q1.078125 -0.140625 1.578125 -0.609375q0.5 -0.46875 0.5 -1.765625l0 -19.953125q0 -2.15625 -1.796875 -2.21875l-3.03125 -0.21875zm48.757538 -13.390625l4.671875 0l0 7.625l9.578125 0l-0.71875 6.046875l-8.859375 0l0 18.9375q0 3.171875 1.15625 4.4375q1.15625 1.25 3.5625 1.25q2.40625 0 4.859375 -1.515625l2.15625 5.546875q-3.59375 2.53125 -9.140625 2.53125q-3.234375 0 -5.46875 -0.828125q-2.234375 -0.828125 -3.3125 -1.828125q-1.078125 -1.015625 -1.65625 -2.953125q-0.578125 -1.953125 -0.65625 -3.0625q-0.0625 -1.125 -0.0625 -3.28125l0 -19.234375l-5.109375 0l0.71875 -5.25q3.375 -0.296875 5.09375 -2.40625q1.734375 -2.125 3.1875 -6.015625z" fill-rule="nonzero"/></g></svg>